<svg width="90" height="25" viewBox="0 0 90 25" fill="none" xmlns="http://www.w3.org/2000/svg">
<path d="M6.09659 2.18182L8.6321 18.7585H8.83452L16.8565 2.18182H21.9702L10.8267 24H4.8821L0.972301 2.18182H6.09659ZM20.8888 24L23.6161 7.63636H28.1545L25.4272 24H20.8888ZM26.354 5.50568C25.6793 5.50568 25.1218 5.28196 24.6815 4.83452C24.2482 4.37997 24.0707 3.8402 24.1488 3.2152C24.2269 2.57599 24.5323 2.03622 25.065 1.59588C25.5977 1.14844 26.2013 0.924714 26.8761 0.924714C27.5508 0.924714 28.1012 1.14844 28.5273 1.59588C28.9535 2.03622 29.131 2.57599 29.06 3.2152C28.989 3.8402 28.6871 4.37997 28.1545 4.83452C27.6289 5.28196 27.0288 5.50568 26.354 5.50568ZM36.4135 24.3196C34.7303 24.3196 33.3453 23.9645 32.2587 23.2543C31.1792 22.5369 30.4228 21.5426 29.9895 20.2713C29.5634 19 29.4888 17.5369 29.7658 15.8821C30.0357 14.206 30.6003 12.7358 31.4597 11.4716C32.3191 10.2003 33.4093 9.20952 34.7303 8.49929C36.0584 7.78196 37.5499 7.4233 39.2047 7.4233C40.6323 7.4233 41.8397 7.68253 42.8269 8.20099C43.8141 8.71946 44.5385 9.44744 45.0002 10.3849C45.4618 11.3224 45.6181 12.4233 45.4689 13.6875H41.1969C41.204 12.8778 40.9945 12.2209 40.5684 11.7166C40.1422 11.2124 39.5172 10.9602 38.6934 10.9602C37.9831 10.9602 37.3297 11.152 36.7331 11.5355C36.1436 11.9119 35.6429 12.4624 35.231 13.1868C34.8262 13.9112 34.5421 14.7884 34.3787 15.8182C34.2083 16.8622 34.2047 17.75 34.3681 18.4815C34.5314 19.2131 34.8439 19.7706 35.3056 20.1541C35.7672 20.5376 36.3496 20.7294 37.0527 20.7294C37.5783 20.7294 38.0648 20.6229 38.5123 20.4098C38.9668 20.1967 39.3645 19.8878 39.7054 19.483C40.0463 19.071 40.3091 18.5774 40.4938 18.0021H44.7765C44.4853 19.2592 43.9561 20.3601 43.1891 21.3047C42.4292 22.2493 41.4739 22.9879 40.3233 23.5206C39.1728 24.0533 37.8695 24.3196 36.4135 24.3196ZM58.1012 7.63636L57.5366 11.0455H47.6715L48.2468 7.63636H58.1012ZM51.1232 3.71591H55.6616L53.1261 18.9716C53.055 19.3906 53.0657 19.7173 53.158 19.9517C53.2504 20.179 53.4031 20.3388 53.6161 20.4311C53.8363 20.5234 54.0991 20.5696 54.4045 20.5696C54.6175 20.5696 54.8342 20.5518 55.0543 20.5163C55.2745 20.4737 55.4414 20.4418 55.555 20.4205L55.7255 23.7976C55.4698 23.8757 55.1254 23.9609 54.6921 24.0533C54.266 24.1456 53.7617 24.2024 53.1793 24.2237C52.0714 24.2663 51.1339 24.1207 50.3668 23.7869C49.5998 23.446 49.0494 22.924 48.7156 22.2209C48.3817 21.5178 48.3107 20.6335 48.5025 19.5682L51.1232 3.71591ZM65.5692 24.3196C63.9002 24.3196 62.5188 23.9645 61.4251 23.2543C60.3313 22.5369 59.5607 21.5426 59.1133 20.2713C58.6729 18.9929 58.5913 17.505 58.8683 15.8075C59.1381 14.1314 59.6992 12.6648 60.5515 11.4077C61.4038 10.1506 62.4869 9.17401 63.8008 8.47798C65.1147 7.77486 66.5955 7.4233 68.2433 7.4233C69.9052 7.4233 71.283 7.78196 72.3768 8.49929C73.4705 9.20952 74.2411 10.2038 74.6886 11.4822C75.136 12.7607 75.2212 14.2486 74.9442 15.946C74.6673 17.6151 74.0991 19.0781 73.2397 20.3352C72.3803 21.5923 71.2972 22.5724 69.9904 23.2756C68.6836 23.9716 67.2099 24.3196 65.5692 24.3196ZM66.0167 20.804C66.7837 20.804 67.462 20.5874 68.0515 20.1541C68.6481 19.7138 69.1417 19.1172 69.5323 18.3643C69.93 17.6044 70.207 16.745 70.3633 15.7862C70.5195 14.8416 70.5302 14.0036 70.3952 13.272C70.2603 12.5334 69.9762 11.951 69.543 11.5249C69.1168 11.0987 68.5309 10.8857 67.7852 10.8857C67.0181 10.8857 66.3363 11.1058 65.7397 11.5462C65.1431 11.9794 64.6495 12.576 64.2589 13.3359C63.8683 14.0959 63.5948 14.9588 63.4386 15.9247C63.2894 16.8622 63.2788 17.7003 63.4066 18.4389C63.5344 19.1705 63.815 19.7493 64.2482 20.1754C64.6815 20.5945 65.271 20.804 66.0167 20.804ZM76.5529 24L79.2802 7.63636H83.68L83.2006 10.4915H83.3711C83.8398 9.47585 84.4684 8.70881 85.2567 8.19034C86.0522 7.66477 86.908 7.40199 87.8242 7.40199C88.0515 7.40199 88.2894 7.41619 88.538 7.4446C88.7937 7.46591 89.021 7.50142 89.2198 7.55114L88.538 11.5888C88.3391 11.5178 88.055 11.4609 87.6857 11.4183C87.3235 11.3686 86.979 11.3438 86.6523 11.3438C85.9918 11.3438 85.3775 11.4893 84.8093 11.7805C84.2411 12.0646 83.7617 12.4624 83.3711 12.9737C82.9876 13.4851 82.7354 14.0746 82.6147 14.7422L81.0913 24H76.5529Z" fill="url(#paint0_linear_1_2)"/>
<defs>
<linearGradient id="paint0_linear_1_2" x1="43.5" y1="-5" x2="43.5" y2="31" gradientUnits="userSpaceOnUse">
<stop offset="0.65625" stop-color="#FF8C00"/>
<stop offset="0.854167" stop-color="#FF6F61" stop-opacity="0"/>
</linearGradient>
</defs>
</svg>
